<?xml version="1.0" standalone="no"?>
<!DOCTYPE svg PUBLIC "-//W3C//DTD SVG 20010904//EN"
 "http://www.w3.org/TR/2001/REC-SVG-20010904/DTD/svg10.dtd">
<svg version="1.0" xmlns="http://www.w3.org/2000/svg"
 width="400.000000pt" height="400.000000pt" viewBox="0 0 400.000000 400.000000"
 preserveAspectRatio="xMidYMid meet">

<g transform="translate(0.000000,400.000000) scale(0.100000,-0.100000)"
fill="#000000" stroke="none">
<path d="M2060 3771 c0 -5 -9 -11 -21 -14 -12 -3 -18 -10 -15 -15 3 -5 -10 -8
-29 -5 -20 2 -45 -1 -56 -7 l-20 -11 22 -20 c34 -29 85 -25 120 10 31 31 39
71 14 71 -8 0 -15 -4 -15 -9z"/>
<path d="M1800 3413 c0 -16 -63 -43 -100 -43 -24 0 -40 -5 -43 -14 -9 -22 21
-41 65 -41 33 0 46 7 69 33 28 32 39 72 19 72 -5 0 -10 -3 -10 -7z"/>
<path d="M2307 3394 c-13 -17 -28 -24 -51 -24 -19 0 -39 -6 -45 -14 -17 -21
14 -41 62 -40 32 1 46 8 63 29 27 35 37 75 18 75 -8 0 -14 -6 -14 -12 0 -10
-2 -10 -8 -2 -5 8 -13 4 -25 -12z"/>
<path d="M2047 3245 c-18 -16 -40 -25 -62 -25 -43 0 -64 -29 -34 -48 26 -17
70 -15 98 4 19 14 51 69 51 89 0 13 -27 2 -53 -20z"/>
<path d="M1380 2847 c0 -17 -42 -37 -77 -37 -14 0 -32 -8 -39 -17 -12 -16 -13
-16 -8 7 4 21 3 22 -4 5 -12 -27 -4 -44 24 -51 38 -10 85 4 103 28 23 33 32
78 15 78 -8 0 -14 -6 -14 -13z"/>
<path d="M2750 2845 c0 -9 -4 -13 -10 -10 -5 3 -10 0 -10 -7 0 -8 -16 -14 -42
-16 -23 -1 -48 -8 -56 -14 -12 -10 -11 -15 8 -30 36 -29 77 -23 117 17 20 20
33 42 31 52 -4 23 -38 30 -38 8z"/>
<path d="M1932 2682 c-44 -42 -106 -119 -145 -177 -27 -39 -37 -105 -17 -105
6 0 10 7 10 16 0 21 63 114 143 211 51 62 65 74 85 70 14 -3 20 -1 15 4 -23
23 -53 17 -91 -19z"/>
<path d="M2560 2607 c-35 -31 -62 -101 -91 -237 -5 -25 -16 -62 -24 -83 -8
-20 -15 -52 -15 -70 0 -18 -4 -27 -8 -20 -4 6 -8 -6 -8 -29 -1 -26 -9 -47 -23
-61 -21 -21 -21 -21 -83 -4 -94 26 -156 32 -343 31 -152 0 -175 -3 -219 -22
-27 -12 -65 -22 -85 -22 -35 0 -81 -22 -81 -40 0 -4 40 3 90 15 49 13 124 29
166 34 167 24 403 6 531 -39 31 -11 58 -19 59 -17 1 1 13 40 27 87 14 47 53
176 86 286 34 111 61 204 61 208 0 12 -15 5 -40 -17z"/>
<path d="M1423 2588 c1 -21 4 -38 7 -38 4 0 13 -26 21 -57 l14 -58 3 39 c2 22
-1 49 -6 60 -5 12 -16 37 -24 56 l-16 35 1 -37z"/>
<path d="M1990 2345 c0 -8 5 -15 10 -15 6 0 10 7 10 15 0 8 -4 15 -10 15 -5 0
-10 -7 -10 -15z"/>
</g>
</svg>
